<mxfile host="app.diagrams.net" modified="2023-11-26T14:32:21.541Z" agent="Mozilla/5.0 (Windows NT 10.0; Win64; x64) AppleWebKit/537.36 (KHTML, like Gecko) Chrome/119.0.0.0 Safari/537.36" etag="GKI7LMK0x0BoGycjOZtE" version="22.0.0" type="github">
  <diagram name="Trang-1" id="pFSfG1H5PuE5ibeNGNi8">
    <mxGraphModel dx="1613" dy="708" grid="1" gridSize="10" guides="1" tooltips="1" connect="1" arrows="1" fold="1" page="1" pageScale="1" pageWidth="827" pageHeight="1169" math="0" shadow="0">
      <root>
        <mxCell id="0" />
        <mxCell id="1" parent="0" />
        <mxCell id="a3TAxca7LJsQUZBVEakc-1" value="Yêu cầu thay đổi" style="rounded=0;whiteSpace=wrap;html=1;" vertex="1" parent="1">
          <mxGeometry x="310" y="115" width="120" height="60" as="geometry" />
        </mxCell>
        <mxCell id="a3TAxca7LJsQUZBVEakc-2" value="Họp" style="text;html=1;strokeColor=none;fillColor=none;align=center;verticalAlign=middle;whiteSpace=wrap;rounded=0;" vertex="1" parent="1">
          <mxGeometry x="290" y="180" width="60" height="30" as="geometry" />
        </mxCell>
        <mxCell id="a3TAxca7LJsQUZBVEakc-3" value="Đầu mỗi sprint" style="rounded=0;whiteSpace=wrap;html=1;" vertex="1" parent="1">
          <mxGeometry x="310" y="20" width="120" height="60" as="geometry" />
        </mxCell>
        <mxCell id="a3TAxca7LJsQUZBVEakc-4" value="Cả team và bên khách hàng" style="rounded=0;whiteSpace=wrap;html=1;" vertex="1" parent="1">
          <mxGeometry x="310" y="230" width="120" height="60" as="geometry" />
        </mxCell>
        <mxCell id="a3TAxca7LJsQUZBVEakc-7" value="Thảo luận thay đổi" style="rounded=0;whiteSpace=wrap;html=1;" vertex="1" parent="1">
          <mxGeometry x="310" y="350" width="120" height="60" as="geometry" />
        </mxCell>
        <mxCell id="a3TAxca7LJsQUZBVEakc-9" value="Quyết định có thêm vào Product backlog không" style="rounded=0;whiteSpace=wrap;html=1;" vertex="1" parent="1">
          <mxGeometry x="310" y="470" width="120" height="60" as="geometry" />
        </mxCell>
        <mxCell id="a3TAxca7LJsQUZBVEakc-11" value="" style="endArrow=classic;html=1;rounded=0;" edge="1" parent="1">
          <mxGeometry width="50" height="50" relative="1" as="geometry">
            <mxPoint x="369.5" y="410" as="sourcePoint" />
            <mxPoint x="369.5" y="460" as="targetPoint" />
          </mxGeometry>
        </mxCell>
        <mxCell id="a3TAxca7LJsQUZBVEakc-12" value="" style="endArrow=classic;html=1;rounded=0;" edge="1" parent="1">
          <mxGeometry width="50" height="50" relative="1" as="geometry">
            <mxPoint x="369.5" y="290" as="sourcePoint" />
            <mxPoint x="369.5" y="340" as="targetPoint" />
          </mxGeometry>
        </mxCell>
        <mxCell id="a3TAxca7LJsQUZBVEakc-13" value="" style="endArrow=classic;html=1;rounded=0;" edge="1" parent="1">
          <mxGeometry width="50" height="50" relative="1" as="geometry">
            <mxPoint x="369.5" y="175" as="sourcePoint" />
            <mxPoint x="369.5" y="225" as="targetPoint" />
          </mxGeometry>
        </mxCell>
        <mxCell id="a3TAxca7LJsQUZBVEakc-14" value="" style="endArrow=classic;html=1;rounded=0;" edge="1" parent="1">
          <mxGeometry width="50" height="50" relative="1" as="geometry">
            <mxPoint x="369.5" y="80" as="sourcePoint" />
            <mxPoint x="370" y="110" as="targetPoint" />
          </mxGeometry>
        </mxCell>
        <mxCell id="a3TAxca7LJsQUZBVEakc-15" value="Thảo luận" style="text;html=1;strokeColor=none;fillColor=none;align=center;verticalAlign=middle;whiteSpace=wrap;rounded=0;" vertex="1" parent="1">
          <mxGeometry x="290" y="300" width="60" height="30" as="geometry" />
        </mxCell>
        <mxCell id="a3TAxca7LJsQUZBVEakc-16" value="Đựa ra quyết định" style="text;html=1;strokeColor=none;fillColor=none;align=center;verticalAlign=middle;whiteSpace=wrap;rounded=0;" vertex="1" parent="1">
          <mxGeometry x="290" y="430" width="60" height="30" as="geometry" />
        </mxCell>
        <mxCell id="a3TAxca7LJsQUZBVEakc-18" value="" style="endArrow=classic;html=1;rounded=0;" edge="1" parent="1">
          <mxGeometry width="50" height="50" relative="1" as="geometry">
            <mxPoint x="310" y="500" as="sourcePoint" />
            <mxPoint x="170" y="570" as="targetPoint" />
            <Array as="points">
              <mxPoint x="170" y="500" />
            </Array>
          </mxGeometry>
        </mxCell>
        <mxCell id="a3TAxca7LJsQUZBVEakc-19" value="Thêm công việc mới và Product backlog" style="rounded=0;whiteSpace=wrap;html=1;" vertex="1" parent="1">
          <mxGeometry x="110" y="570" width="120" height="60" as="geometry" />
        </mxCell>
        <mxCell id="a3TAxca7LJsQUZBVEakc-20" value="Giữ nguyên Product backlog" style="rounded=0;whiteSpace=wrap;html=1;" vertex="1" parent="1">
          <mxGeometry x="520" y="570" width="120" height="60" as="geometry" />
        </mxCell>
        <mxCell id="a3TAxca7LJsQUZBVEakc-21" value="" style="endArrow=classic;html=1;rounded=0;entryX=0.5;entryY=0;entryDx=0;entryDy=0;" edge="1" parent="1" target="a3TAxca7LJsQUZBVEakc-20">
          <mxGeometry width="50" height="50" relative="1" as="geometry">
            <mxPoint x="430" y="500" as="sourcePoint" />
            <mxPoint x="580" y="550" as="targetPoint" />
            <Array as="points">
              <mxPoint x="580" y="500" />
            </Array>
          </mxGeometry>
        </mxCell>
        <mxCell id="a3TAxca7LJsQUZBVEakc-22" value="Tiếp tục các bước khác trương sprint hiện tại" style="rounded=0;whiteSpace=wrap;html=1;" vertex="1" parent="1">
          <mxGeometry x="310" y="570" width="120" height="60" as="geometry" />
        </mxCell>
        <mxCell id="a3TAxca7LJsQUZBVEakc-23" value="" style="endArrow=classic;html=1;rounded=0;" edge="1" parent="1">
          <mxGeometry width="50" height="50" relative="1" as="geometry">
            <mxPoint x="230" y="599.38" as="sourcePoint" />
            <mxPoint x="300" y="599.38" as="targetPoint" />
          </mxGeometry>
        </mxCell>
        <mxCell id="a3TAxca7LJsQUZBVEakc-24" value="" style="endArrow=classic;html=1;rounded=0;" edge="1" parent="1">
          <mxGeometry width="50" height="50" relative="1" as="geometry">
            <mxPoint x="520" y="600" as="sourcePoint" />
            <mxPoint x="430" y="599.38" as="targetPoint" />
            <Array as="points">
              <mxPoint x="500" y="599.38" />
            </Array>
          </mxGeometry>
        </mxCell>
        <mxCell id="a3TAxca7LJsQUZBVEakc-25" value="" style="endArrow=classic;html=1;rounded=0;entryX=0;entryY=0.5;entryDx=0;entryDy=0;" edge="1" parent="1" target="a3TAxca7LJsQUZBVEakc-3">
          <mxGeometry width="50" height="50" relative="1" as="geometry">
            <mxPoint x="370" y="630" as="sourcePoint" />
            <mxPoint x="270" y="60" as="targetPoint" />
            <Array as="points">
              <mxPoint x="370" y="680" />
              <mxPoint x="80" y="680" />
              <mxPoint x="80" y="50" />
            </Array>
          </mxGeometry>
        </mxCell>
      </root>
    </mxGraphModel>
  </diagram>
</mxfile>
